<svg width="48" height="48" viewBox="0 0 48 48" fill="none" xmlns="http://www.w3.org/2000/svg">
<g clip-path="url(#clip0_8_350)">
<path d="M0.75 24C0.75 36.8438 11.1562 47.25 24 47.25C36.8438 47.25 47.25 36.8438 47.25 24C47.25 11.1562 36.8438 0.75 24 0.75C11.1562 0.75 0.75 11.1562 0.75 24ZM42.75 24C42.75 34.3594 34.3594 42.75 24 42.75C13.6406 42.75 5.25 34.3594 5.25 24C5.25 13.6406 13.6406 5.25 24 5.25C34.3594 5.25 42.75 13.6406 42.75 24ZM36 22.125V25.875C36 26.4937 35.4937 27 34.875 27H24V33.2812C24 34.2844 22.7906 34.7812 22.0781 34.0781L12.7969 24.7969C12.3563 24.3563 12.3563 23.6437 12.7969 23.2031L22.0781 13.9219C22.7906 13.2094 24 13.7156 24 14.7188V21H34.875C35.4937 21 36 21.5063 36 22.125Z" fill="#222255"/>
</g>
<defs>
<clipPath id="clip0_8_350">
<rect width="48" height="48" fill="white"/>
</clipPath>
</defs>
</svg>
