<svg width="48" height="48" viewBox="0 0 48 48" fill="none" xmlns="http://www.w3.org/2000/svg">
<g clip-path="url(#clip0_8_364)">
<path d="M47.25 24C47.25 11.1562 36.8438 0.75 24 0.75C11.1562 0.75 0.75 11.1562 0.75 24C0.75 36.8438 11.1562 47.25 24 47.25C36.8438 47.25 47.25 36.8438 47.25 24ZM5.25 24C5.25 13.6406 13.6406 5.25 24 5.25C34.3594 5.25 42.75 13.6406 42.75 24C42.75 34.3594 34.3594 42.75 24 42.75C13.6406 42.75 5.25 34.3594 5.25 24ZM12 25.875V22.125C12 21.5063 12.5063 21 13.125 21H24V14.7188C24 13.7156 25.2094 13.2188 25.9219 13.9219L35.2031 23.2031C35.6437 23.6437 35.6437 24.3563 35.2031 24.7969L25.9219 34.0781C25.2094 34.7906 24 34.2844 24 33.2812V27H13.125C12.5063 27 12 26.4937 12 25.875Z" fill="#222255"/>
</g>
<defs>
<clipPath id="clip0_8_364">
<rect width="48" height="48" fill="white"/>
</clipPath>
</defs>
</svg>
