<svg width="291" height="96" viewBox="0 0 291 96" fill="none" xmlns="http://www.w3.org/2000/svg">
<path d="M169.903 12.6278C171.025 11.9802 172.459 12.3645 173.107 13.4862L200.663 61.2143C201.31 62.336 200.926 63.7703 199.804 64.4179L197.097 65.9813C195.975 66.6289 194.541 66.2446 193.893 65.1229L166.337 17.3948C165.689 16.2731 166.074 14.8389 167.195 14.1913L169.903 12.6278Z" fill="#FF3D54"/>
<path d="M165.168 27.0962C166.477 26.3407 168.15 26.7891 168.906 28.0977L185.908 57.547C186.664 58.8556 186.215 60.5289 184.907 61.2845L181.522 63.2388C180.213 63.9943 178.54 63.5459 177.784 62.2373L160.782 32.7881C160.026 31.4794 160.475 29.8061 161.783 29.0506L165.168 27.0962Z" fill="#FF3D54"/>
<path d="M159.027 41.474C160.335 40.7184 162.009 41.1668 162.764 42.4754L170.386 55.6768C171.142 56.9855 170.693 58.6588 169.385 59.4143L168.369 60.0006C167.06 60.7562 165.387 60.3078 164.632 58.9992L157.01 45.7978C156.254 44.4892 156.703 42.8158 158.011 42.0603L159.027 41.474Z" fill="#FF3D54"/>
<path d="M198.631 18.6085C199.94 17.853 201.613 18.3013 202.368 19.61L209.99 32.8114C210.746 34.12 210.297 35.7933 208.989 36.5489L207.973 37.1352C206.665 37.8907 204.991 37.4423 204.236 36.1337L196.614 22.9323C195.858 21.6237 196.307 19.9503 197.615 19.1948L198.631 18.6085Z" fill="#FF3D54"/>
<path d="M185.478 15.3704C186.787 14.6148 188.46 15.0632 189.216 16.3718L206.218 45.8211C206.974 47.1297 206.525 48.803 205.217 49.5586L201.832 51.5129C200.523 52.2684 198.85 51.8201 198.094 50.5114L181.092 21.0622C180.336 19.7535 180.785 18.0802 182.093 17.3247L185.478 15.3704Z" fill="#FF3D54"/>
<path d="M222 39.5C222 60.763 204.763 78 183.5 78C162.237 78 145 60.763 145 39.5C145 18.237 162.237 1 183.5 1C204.763 1 222 18.237 222 39.5ZM151.618 39.5C151.618 57.1081 165.892 71.3824 183.5 71.3824C201.108 71.3824 215.382 57.1081 215.382 39.5C215.382 21.8918 201.108 7.61762 183.5 7.61762C165.892 7.61762 151.618 21.8918 151.618 39.5Z" fill="#FF3D54"/>
<path d="M24.096 75V47.544C24.096 43.896 24 39.672 23.712 36.504L50.016 75H66.816V7.8H49.056V35.256C49.056 39 49.152 43.224 49.44 46.392L23.136 7.8H6.336V75H24.096ZM91.461 75L95.301 64.44H123.141L126.981 75H145.221L118.821 7.8H99.621L73.221 75H91.461ZM107.493 30.648C108.069 29.016 108.645 27.384 109.221 23.832C109.797 27.384 110.373 29.016 110.949 30.648L117.861 50.04H100.581L107.493 30.648ZM246.565 75V53.112H254.245L270.277 75H290.341L271.813 50.616C279.205 47.64 284.677 41.592 284.677 30.456C284.677 12.696 270.757 7.8 257.125 7.8H228.805V75H246.565ZM246.565 23.16H257.893C262.981 23.16 266.437 25.752 266.437 30.936C266.437 36.12 262.981 38.712 257.893 38.712H246.565V23.16Z" fill="#393939"/>
</svg>
