<svg width="198" height="197" viewBox="0 0 198 197" fill="none" xmlns="http://www.w3.org/2000/svg">
<path d="M64.2141 29.7491C67.0838 28.0922 70.7534 29.0754 72.4102 31.9452L142.91 154.055C144.567 156.925 143.584 160.594 140.714 162.251L133.786 166.251C130.916 167.908 127.247 166.925 125.59 164.055L55.0897 41.9452C53.4329 39.0754 54.4161 35.4059 57.2859 33.7491L64.2141 29.7491Z" fill="#FF3D54"/>
<path d="M52.0993 66.7657C55.4474 64.8327 59.7285 65.9798 61.6615 69.3279L105.162 144.672C107.095 148.02 105.947 152.301 102.599 154.234L93.9391 159.234C90.591 161.167 86.3099 160.02 84.3769 156.672L40.8769 81.3279C38.9439 77.9798 40.091 73.6987 43.4391 71.7657L52.0993 66.7657Z" fill="#FF3D54"/>
<path d="M36.3865 103.55C39.7346 101.617 44.0157 102.764 45.9487 106.113L65.4487 139.887C67.3817 143.236 66.2346 147.517 62.8865 149.45L60.2884 150.95C56.9404 152.883 52.6593 151.736 50.7263 148.387L31.2263 114.613C29.2933 111.264 30.4404 106.983 33.7884 105.05L36.3865 103.55Z" fill="#FF3D54"/>
<path d="M137.712 45.0503C141.06 43.1173 145.341 44.2645 147.274 47.6125L166.774 81.3875C168.707 84.7355 167.56 89.0167 164.212 90.9497L161.613 92.4497C158.265 94.3827 153.984 93.2355 152.051 89.8875L132.551 56.1125C130.618 52.7645 131.765 48.4833 135.113 46.5503L137.712 45.0503Z" fill="#FF3D54"/>
<path d="M104.061 36.7657C107.409 34.8327 111.69 35.9798 113.623 39.3279L157.123 114.672C159.056 118.02 157.909 122.301 154.561 124.234L145.901 129.234C142.553 131.167 138.271 130.02 136.338 126.672L92.8384 51.3279C90.9054 47.9798 92.0526 43.6987 95.4006 41.7657L104.061 36.7657Z" fill="#FF3D54"/>
<path d="M197.5 98.5C197.5 152.9 153.4 197 99 197C44.6 197 0.5 152.9 0.5 98.5C0.5 44.1 44.6 0 99 0C153.4 0 197.5 44.1 197.5 98.5ZM17.4308 98.5C17.4308 143.549 53.9506 180.069 99 180.069C144.049 180.069 180.569 143.549 180.569 98.5C180.569 53.4506 144.049 16.9308 99 16.9308C53.9506 16.9308 17.4308 53.4506 17.4308 98.5Z" fill="#FF3D54"/>
</svg>
